<svg width="152" height="48" viewBox="0 0 152 48" fill="none" xmlns="http://www.w3.org/2000/svg">
<path d="M0 0H48V48H0V0Z" fill="black"/>
<path fill-rule="evenodd" clip-rule="evenodd" d="M7.8067 30.7736C7.8067 32.5543 8.06196 34.0225 8.97587 35.5494C9.41972 36.2909 9.94597 37.0014 10.6041 37.5505C10.7103 37.6391 10.758 37.7034 10.8565 37.7991C11.9905 38.904 14.4579 39.8474 16.0676 39.8474C17.9378 39.8474 19.0722 39.6493 20.7204 38.7426C22.3001 37.8734 24.5489 35.4027 25.9081 34.043C26.8415 33.1101 28.0207 32.2362 28.0207 31.1484C28.0207 30.2093 27.1854 29.4587 26.4563 29.4587C25.5547 29.4587 25.4776 29.5297 24.8132 30.1941C23.7674 31.2404 20.4509 34.6393 19.6717 35.2532C17.6639 36.8362 14.615 36.6714 12.7991 34.8555C11.7852 33.8416 11.3118 32.52 11.3118 31.0232C11.3118 28.5863 13.1072 27.1933 14.3626 25.9384L17.4291 22.8714C18.1092 22.1913 18.1959 22.128 18.1959 21.1974C18.1959 20.7969 17.8911 20.3054 17.6672 20.0987C17.3591 19.8139 16.9753 19.633 16.4433 19.633C15.4389 19.633 14.4612 20.8955 13.6121 21.7451L10.5451 24.8116C9.90358 25.4498 9.38924 26.1332 8.90634 26.928C8.39914 27.7619 7.80717 29.464 7.80717 30.7727L7.8067 30.7736Z" fill="#FEFEFE"/>
<path fill-rule="evenodd" clip-rule="evenodd" d="M19.6346 16.4425C19.6346 17.4612 20.4594 18.1951 21.199 18.1951C22.1001 18.1951 22.1777 18.1237 22.8416 17.4598C23.8879 16.4135 27.2044 13.0146 27.9831 12.4007C29.8785 10.9067 32.7512 10.9415 34.5128 12.5164C34.6471 12.6364 34.7471 12.6898 34.8566 12.7983L35.4153 13.4913C36.0977 14.4152 36.3439 15.4058 36.3439 16.6306C36.3439 19.0676 34.5485 20.4606 33.2931 21.7155L30.2266 24.782C29.5466 25.462 29.4604 25.5259 29.4604 26.456C29.4604 27.1956 30.1938 28.0204 31.2125 28.0204C31.9611 28.0204 32.4045 27.5489 32.7926 27.1598L37.4174 22.5227C38.1065 21.6593 38.0008 21.9579 38.7499 20.7258C39.4605 19.5562 39.8152 18.1727 39.8491 16.7711V16.3268C39.8324 15.6348 39.7395 14.9443 39.5738 14.2771C39.3885 13.5294 39.0733 12.7622 38.6794 12.1049C38.2356 11.363 37.7098 10.6529 37.0512 10.1038C36.9449 10.0152 36.8978 9.95091 36.7992 9.85518C36.614 9.67421 36.4158 9.55039 36.1939 9.39656C34.8057 8.43218 33.2531 7.89736 31.6715 7.80687H30.7119C29.4299 7.87974 28.1469 8.24501 26.9353 8.91175C25.3557 9.78089 23.1064 12.2516 21.7472 13.6113C20.899 14.4595 19.6346 15.4396 19.6346 16.4425Z" fill="#FEFEFE"/>
<path fill-rule="evenodd" clip-rule="evenodd" d="M17.1938 28.5833V28.8962C17.1938 29.6439 18.0106 30.4607 18.7583 30.4607C19.856 30.4607 20.0175 30.1087 20.7766 29.3501L29.3189 20.8078C30.0876 20.0391 30.4609 19.8686 30.4609 18.758C30.4609 18.0103 29.6447 17.1936 28.8965 17.1936C27.7983 17.1936 27.6368 17.5455 26.8782 18.3047C26.3829 18.7995 25.9338 19.2486 25.439 19.7439L19.7441 25.4387C19.2598 25.9231 18.8207 26.3617 18.3359 26.847C17.9182 27.2646 17.1938 27.8161 17.1938 28.5833Z" fill="#FEFEFE"/>
<path d="M76.3965 16.4688V4.35742H85.625V17.0488C85.6602 25.9785 78.3477 28.5449 69.4883 28.5625C60.6289 28.5449 53.3164 25.9785 53.3516 17.0488V4.35742H62.5625V16.4688C62.5273 20.3535 65.709 21.0215 69.4883 21.0742C73.25 21.0215 76.4492 20.3535 76.3965 16.4688Z" fill="black"/>
<path d="M89.7734 4.375H112.537C117.406 4.32227 121.537 8.41797 121.467 13.3047C121.467 15.0801 120.992 16.6973 120.043 18.1387C119.111 19.5625 117.863 20.6523 116.316 21.373L121.467 28H111.658L107.211 22.2344H98.9844V28H89.7734V4.375ZM110.217 11.2832H98.9844V15.3086H110.217C110.779 15.3086 111.254 15.1152 111.641 14.7285C112.045 14.3242 112.238 13.8496 112.238 13.3047C112.238 12.1797 111.342 11.2832 110.217 11.2832Z" fill="black"/>
<path d="M124.332 4.35742H133.543V20.4941H151.982V27.9824H124.332V4.35742Z" fill="black"/>
<path d="M60.1705 35.8523C60.1326 35.4356 59.964 35.1117 59.6648 34.8807C59.3693 34.6458 58.947 34.5284 58.3977 34.5284C58.0341 34.5284 57.7311 34.5758 57.4886 34.6705C57.2462 34.7652 57.0644 34.8958 56.9432 35.0625C56.822 35.2254 56.7595 35.4129 56.7557 35.625C56.7481 35.7992 56.7822 35.9527 56.858 36.0852C56.9375 36.2178 57.0511 36.3352 57.1989 36.4375C57.3504 36.536 57.5322 36.6231 57.7443 36.6989C57.9564 36.7746 58.1951 36.8409 58.4602 36.8977L59.4602 37.125C60.036 37.25 60.5436 37.4167 60.983 37.625C61.4261 37.8333 61.7973 38.0814 62.0966 38.3693C62.3996 38.6572 62.6288 38.9886 62.7841 39.3636C62.9394 39.7386 63.0189 40.1591 63.0227 40.625C63.0189 41.3598 62.8333 41.9905 62.4659 42.517C62.0985 43.0436 61.5701 43.447 60.8807 43.7273C60.1951 44.0076 59.3674 44.1477 58.3977 44.1477C57.4242 44.1477 56.5758 44.0019 55.8523 43.7102C55.1288 43.4186 54.5663 42.9754 54.1648 42.3807C53.7633 41.786 53.5568 41.0341 53.5455 40.125H56.2386C56.2614 40.5 56.3617 40.8125 56.5398 41.0625C56.7178 41.3125 56.9621 41.5019 57.2727 41.6307C57.5871 41.7595 57.9508 41.8239 58.3636 41.8239C58.7424 41.8239 59.0644 41.7727 59.3295 41.6705C59.5985 41.5682 59.8049 41.4261 59.9489 41.2443C60.0928 41.0625 60.1667 40.8542 60.1705 40.6193C60.1667 40.3996 60.0985 40.2121 59.9659 40.0568C59.8333 39.8977 59.6288 39.7614 59.3523 39.6477C59.0795 39.5303 58.7311 39.4223 58.3068 39.3239L57.0909 39.0398C56.0833 38.8087 55.2898 38.4356 54.7102 37.9205C54.1307 37.4015 53.8428 36.7008 53.8466 35.8182C53.8428 35.0985 54.036 34.4678 54.4261 33.9261C54.8163 33.3845 55.3561 32.9621 56.0455 32.6591C56.7348 32.3561 57.5208 32.2045 58.4034 32.2045C59.3049 32.2045 60.0871 32.358 60.75 32.6648C61.4167 32.9678 61.9337 33.3939 62.3011 33.9432C62.6686 34.4924 62.8561 35.1288 62.8636 35.8523H60.1705Z" fill="black"/>
<path d="M64.4432 44V32.3636H67.2557V37.0341H71.8409V32.3636H74.6477V44H71.8409V39.3239H67.2557V44H64.4432Z" fill="black"/>
<path d="M87.3949 38.1818C87.3949 39.4621 87.1487 40.5473 86.6562 41.4375C86.1638 42.3277 85.4972 43.0038 84.6562 43.4659C83.8191 43.928 82.8797 44.1591 81.8381 44.1591C80.7926 44.1591 79.8513 43.9261 79.0142 43.4602C78.1771 42.9943 77.5123 42.3182 77.0199 41.4318C76.5313 40.5417 76.2869 39.4583 76.2869 38.1818C76.2869 36.9015 76.5313 35.8163 77.0199 34.9261C77.5123 34.036 78.1771 33.3598 79.0142 32.8977C79.8513 32.4356 80.7926 32.2045 81.8381 32.2045C82.8797 32.2045 83.8191 32.4356 84.6562 32.8977C85.4972 33.3598 86.1638 34.036 86.6562 34.9261C87.1487 35.8163 87.3949 36.9015 87.3949 38.1818ZM84.5199 38.1818C84.5199 37.4242 84.4119 36.7841 84.196 36.2614C83.9839 35.7386 83.6771 35.3428 83.2756 35.0739C82.8778 34.8049 82.3987 34.6705 81.8381 34.6705C81.2812 34.6705 80.8021 34.8049 80.4006 35.0739C79.9991 35.3428 79.6903 35.7386 79.4744 36.2614C79.2623 36.7841 79.1562 37.4242 79.1562 38.1818C79.1562 38.9394 79.2623 39.5795 79.4744 40.1023C79.6903 40.625 79.9991 41.0208 80.4006 41.2898C80.8021 41.5587 81.2812 41.6932 81.8381 41.6932C82.3987 41.6932 82.8778 41.5587 83.2756 41.2898C83.6771 41.0208 83.9839 40.625 84.196 40.1023C84.4119 39.5795 84.5199 38.9394 84.5199 38.1818Z" fill="black"/>
<path d="M89.0369 44V32.3636H93.8438C94.715 32.3636 95.4669 32.5208 96.0994 32.8352C96.7358 33.1458 97.2263 33.5928 97.571 34.1761C97.9157 34.7557 98.0881 35.4432 98.0881 36.2386C98.0881 37.0455 97.9119 37.7311 97.5597 38.2955C97.2074 38.8561 96.7074 39.2841 96.0597 39.5795C95.4119 39.8712 94.6449 40.017 93.7585 40.017H90.7188V37.8011H93.2358C93.66 37.8011 94.0142 37.7462 94.2983 37.6364C94.5862 37.5227 94.804 37.3523 94.9517 37.125C95.0994 36.8939 95.1733 36.5985 95.1733 36.2386C95.1733 35.8788 95.0994 35.5814 94.9517 35.3466C94.804 35.108 94.5862 34.9299 94.2983 34.8125C94.0104 34.6913 93.6562 34.6307 93.2358 34.6307H91.8494V44H89.0369ZM95.5881 38.6818L98.4858 44H95.4176L92.5767 38.6818H95.5881Z" fill="black"/>
<path d="M99.25 34.6477V32.3636H109.085V34.6477H105.557V44H102.784V34.6477H99.25Z" fill="black"/>
<path d="M110.459 44V32.3636H118.572V34.6477H113.271V37.0341H118.158V39.3239H113.271V41.7159H118.572V44H110.459Z" fill="black"/>
<path d="M130.237 32.3636V44H127.851L123.22 37.2841H123.146V44H120.334V32.3636H122.754L127.334 39.0682H127.43V32.3636H130.237Z" fill="black"/>
<path d="M132.006 44V32.3636H140.119V34.6477H134.818V37.0341H139.705V39.3239H134.818V41.7159H140.119V44H132.006Z" fill="black"/>
<path d="M141.881 44V32.3636H146.688C147.559 32.3636 148.311 32.5208 148.943 32.8352C149.58 33.1458 150.07 33.5928 150.415 34.1761C150.759 34.7557 150.932 35.4432 150.932 36.2386C150.932 37.0455 150.756 37.7311 150.403 38.2955C150.051 38.8561 149.551 39.2841 148.903 39.5795C148.256 39.8712 147.489 40.017 146.602 40.017H143.562V37.8011H146.08C146.504 37.8011 146.858 37.7462 147.142 37.6364C147.43 37.5227 147.648 37.3523 147.795 37.125C147.943 36.8939 148.017 36.5985 148.017 36.2386C148.017 35.8788 147.943 35.5814 147.795 35.3466C147.648 35.108 147.43 34.9299 147.142 34.8125C146.854 34.6913 146.5 34.6307 146.08 34.6307H144.693V44H141.881ZM148.432 38.6818L151.33 44H148.261L145.42 38.6818H148.432Z" fill="black"/>
</svg>
